<svg xmlns="http://www.w3.org/2000/svg" xmlns:xlink="http://www.w3.org/1999/xlink" id="Layer_2" width="71.333" height="71.333" x="0" y="0" enable-background="new 0 0 71.333 71.333" version="1.1" viewBox="0 0 71.333 71.333" xml:space="preserve"><path fill="none" stroke="#292929" stroke-linecap="round" stroke-linejoin="round" stroke-miterlimit="3.864" stroke-width=".761" d="M11.937,42.124c0,0,6.416-4.218,9.291-11.921s5.375-17.87,17.209-17.87s15.828,11,15.828,11l8.338,5.646l-7.883,6.688	c0,0-5.63,21.241-25.212,21.241c-13.49,0-16.989-8.409-16.989-8.409l2.417-3.667"/><path fill="none" stroke="#292929" stroke-linecap="round" stroke-linejoin="round" stroke-miterlimit="3.864" stroke-width=".761" d="M54.721,35.667c0,0-2.466-1.472-2.466-5.786c0-2.875,0.842-4.87,1.919-6.779"/><circle cx="41.267" cy="24.855" r="2.677" fill="none" stroke="#292929" stroke-linecap="round" stroke-linejoin="round" stroke-miterlimit="3.864" stroke-width=".761"/><path fill="none" stroke="#292929" stroke-linecap="round" stroke-linejoin="round" stroke-miterlimit="3.864" stroke-width=".761" d="M11.937,42.124c0,0,7.625,8.906,21.213-0.625"/><line x1="39.603" x2="51.655" y1="54.721" y2="42.844" fill="none" stroke="#292929" stroke-linecap="round" stroke-linejoin="round" stroke-miterlimit="3.864" stroke-width=".375"/><line x1="36.103" x2="53.588" y1="56.089" y2="38.859" fill="none" stroke="#292929" stroke-linecap="round" stroke-linejoin="round" stroke-miterlimit="3.864" stroke-width=".375"/><line x1="33.471" x2="54.637" y1="56.602" y2="35.745" fill="none" stroke="#292929" stroke-linecap="round" stroke-linejoin="round" stroke-miterlimit="3.864" stroke-width=".375"/><line x1="31.098" x2="53.659" y1="56.86" y2="34.627" fill="none" stroke="#292929" stroke-linecap="round" stroke-linejoin="round" stroke-miterlimit="3.864" stroke-width=".375"/><line x1="28.938" x2="52.896" y1="56.908" y2="33.299" fill="none" stroke="#292929" stroke-linecap="round" stroke-linejoin="round" stroke-miterlimit="3.864" stroke-width=".375"/><line x1="26.918" x2="52.416" y1="56.817" y2="31.691" fill="none" stroke="#292929" stroke-linecap="round" stroke-linejoin="round" stroke-miterlimit="3.864" stroke-width=".375"/><line x1="25.057" x2="52.255" y1="56.571" y2="29.769" fill="none" stroke="#292929" stroke-linecap="round" stroke-linejoin="round" stroke-miterlimit="3.864" stroke-width=".375"/><line x1="23.299" x2="52.45" y1="56.222" y2="27.496" fill="none" stroke="#292929" stroke-linecap="round" stroke-linejoin="round" stroke-miterlimit="3.864" stroke-width=".375"/><line x1="21.656" x2="53.156" y1="55.761" y2="24.72" fill="none" stroke="#292929" stroke-linecap="round" stroke-linejoin="round" stroke-miterlimit="3.864" stroke-width=".375"/><line x1="20.123" x2="53.678" y1="55.191" y2="22.124" fill="none" stroke="#292929" stroke-linecap="round" stroke-linejoin="round" stroke-miterlimit="3.864" stroke-width=".375"/><line x1="18.696" x2="52.959" y1="54.516" y2="20.751" fill="none" stroke="#292929" stroke-linecap="round" stroke-linejoin="round" stroke-miterlimit="3.864" stroke-width=".375"/><line x1="17.373" x2="52.125" y1="53.739" y2="19.493" fill="none" stroke="#292929" stroke-linecap="round" stroke-linejoin="round" stroke-miterlimit="3.864" stroke-width=".375"/><line x1="43.944" x2="51.209" y1="25.474" y2="18.315" fill="none" stroke="#292929" stroke-linecap="round" stroke-linejoin="round" stroke-miterlimit="3.864" stroke-width=".375"/><line x1="16.152" x2="41.892" y1="52.861" y2="27.496" fill="none" stroke="#292929" stroke-linecap="round" stroke-linejoin="round" stroke-miterlimit="3.864" stroke-width=".375"/><line x1="43.74" x2="50.21" y1="23.594" y2="17.219" fill="none" stroke="#292929" stroke-linecap="round" stroke-linejoin="round" stroke-miterlimit="3.864" stroke-width=".375"/><line x1="14.988" x2="40.044" y1="51.928" y2="27.237" fill="none" stroke="#292929" stroke-linecap="round" stroke-linejoin="round" stroke-miterlimit="3.864" stroke-width=".375"/><line x1="42.665" x2="49.124" y1="22.572" y2="16.208" fill="none" stroke="#292929" stroke-linecap="round" stroke-linejoin="round" stroke-miterlimit="3.864" stroke-width=".375"/><line x1="14.024" x2="38.964" y1="50.797" y2="26.22" fill="none" stroke="#292929" stroke-linecap="round" stroke-linejoin="round" stroke-miterlimit="3.864" stroke-width=".375"/><line x1="40.955" x2="47.946" y1="22.178" y2="15.288" fill="none" stroke="#292929" stroke-linecap="round" stroke-linejoin="round" stroke-miterlimit="3.864" stroke-width=".375"/><line x1="13.132" x2="38.616" y1="49.595" y2="24.482" fill="none" stroke="#292929" stroke-linecap="round" stroke-linejoin="round" stroke-miterlimit="3.864" stroke-width=".375"/><line x1="13.24" x2="46.668" y1="47.408" y2="14.466" fill="none" stroke="#292929" stroke-linecap="round" stroke-linejoin="round" stroke-miterlimit="3.864" stroke-width=".375"/><line x1="14.473" x2="45.28" y1="44.112" y2="13.754" fill="none" stroke="#292929" stroke-linecap="round" stroke-linejoin="round" stroke-miterlimit="3.864" stroke-width=".375"/><line x1="13.215" x2="43.767" y1="43.271" y2="13.164" fill="none" stroke="#292929" stroke-linecap="round" stroke-linejoin="round" stroke-miterlimit="3.864" stroke-width=".375"/><line x1="16.69" x2="42.082" y1="37.766" y2="12.744" fill="none" stroke="#292929" stroke-linecap="round" stroke-linejoin="round" stroke-miterlimit="3.864" stroke-width=".375"/><line x1="20.502" x2="40.293" y1="31.929" y2="12.426" fill="none" stroke="#292929" stroke-linecap="round" stroke-linejoin="round" stroke-miterlimit="3.864" stroke-width=".375"/><line x1="21.772" x2="38.276" y1="28.597" y2="12.333" fill="none" stroke="#292929" stroke-linecap="round" stroke-linejoin="round" stroke-miterlimit="3.864" stroke-width=".375"/><line x1="23.028" x2="35.914" y1="25.278" y2="12.58" fill="none" stroke="#292929" stroke-linecap="round" stroke-linejoin="round" stroke-miterlimit="3.864" stroke-width=".375"/><line x1="24.449" x2="33.166" y1="21.797" y2="13.207" fill="none" stroke="#292929" stroke-linecap="round" stroke-linejoin="round" stroke-miterlimit="3.864" stroke-width=".375"/><path fill="none" stroke="#292929" stroke-linecap="round" stroke-linejoin="round" stroke-miterlimit="3.864" stroke-width=".375" d="M35.914,12.501"/><path fill="none" stroke="#292929" stroke-linecap="round" stroke-linejoin="round" stroke-miterlimit="3.864" stroke-width=".375" d="M53.678,22.035"/></svg>