<svg xmlns="http://www.w3.org/2000/svg" xmlns:xlink="http://www.w3.org/1999/xlink" id="Layer_1" width="71.333" height="71.333" x="0" y="0" enable-background="new 0 0 71.333 71.333" version="1.1" viewBox="0 0 71.333 71.333" xml:space="preserve"><path fill="none" stroke="#292929" stroke-linecap="round" stroke-linejoin="round" stroke-miterlimit="3.864" stroke-width=".761" d="M35.136,64.587c1.109-1.294,2.053-3.112,2.226-5.581l0.109-1.55H15.545c-2.403,0-4.349-1.948-4.349-4.349V15.41	c0-2.403,1.947-4.349,4.349-4.349h43.494c2.403,0,4.349,1.947,4.349,4.349v37.695c0,2.401-1.947,4.349-4.349,4.349H44.003	l-0.345,0.96C42.743,60.965,40.605,63.962,35.136,64.587z"/><g><line x1="30.553" x2="32.547" y1="29.014" y2="27.014" fill="none" fill-rule="evenodd" stroke="#292929" stroke-linecap="round" stroke-linejoin="round" stroke-miterlimit="3.864" stroke-width=".375" clip-rule="evenodd"/><line x1="28.987" x2="34.67" y1="32.658" y2="27.005" fill="none" fill-rule="evenodd" stroke="#292929" stroke-linecap="round" stroke-linejoin="round" stroke-miterlimit="3.864" stroke-width=".375" clip-rule="evenodd"/><line x1="28.459" x2="33.557" y1="35.258" y2="30.203" fill="none" fill-rule="evenodd" stroke="#292929" stroke-linecap="round" stroke-linejoin="round" stroke-miterlimit="3.864" stroke-width=".375" clip-rule="evenodd"/><line x1="28.459" x2="32.56" y1="37.357" y2="33.287" fill="none" fill-rule="evenodd" stroke="#292929" stroke-linecap="round" stroke-linejoin="round" stroke-miterlimit="3.864" stroke-width=".375" clip-rule="evenodd"/><line x1="28.459" x2="33.767" y1="39.457" y2="34.194" fill="none" fill-rule="evenodd" stroke="#292929" stroke-linecap="round" stroke-linejoin="round" stroke-miterlimit="3.864" stroke-width=".375" clip-rule="evenodd"/><line x1="33.329" x2="35.126" y1="40.953" y2="39.151" fill="none" fill-rule="evenodd" stroke="#292929" stroke-linecap="round" stroke-linejoin="round" stroke-miterlimit="3.864" stroke-width=".375" clip-rule="evenodd"/><line x1="31.174" x2="35.126" y1="40.989" y2="37.051" fill="none" fill-rule="evenodd" stroke="#292929" stroke-linecap="round" stroke-linejoin="round" stroke-miterlimit="3.864" stroke-width=".375" clip-rule="evenodd"/><line x1="29.094" x2="35.141" y1="40.948" y2="34.938" fill="none" fill-rule="evenodd" stroke="#292929" stroke-linecap="round" stroke-linejoin="round" stroke-miterlimit="3.864" stroke-width=".375" clip-rule="evenodd"/><polygon fill="none" fill-rule="evenodd" stroke="#292929" stroke-linecap="round" stroke-linejoin="round" stroke-miterlimit="3.864" stroke-width=".75" points="34.748 26.995 31.368 26.995 28.327 34.139 28.327 40.996 35.182 40.996 35.182 34.139 32.286 34.139" clip-rule="evenodd"/></g><g><line x1="20.775" x2="22.768" y1="29.014" y2="27.014" fill="none" fill-rule="evenodd" stroke="#292929" stroke-linecap="round" stroke-linejoin="round" stroke-miterlimit="3.864" stroke-width=".375" clip-rule="evenodd"/><line x1="19.208" x2="24.891" y1="32.658" y2="27.005" fill="none" fill-rule="evenodd" stroke="#292929" stroke-linecap="round" stroke-linejoin="round" stroke-miterlimit="3.864" stroke-width=".375" clip-rule="evenodd"/><line x1="18.679" x2="23.778" y1="35.258" y2="30.203" fill="none" fill-rule="evenodd" stroke="#292929" stroke-linecap="round" stroke-linejoin="round" stroke-miterlimit="3.864" stroke-width=".375" clip-rule="evenodd"/><line x1="18.679" x2="22.781" y1="37.357" y2="33.287" fill="none" fill-rule="evenodd" stroke="#292929" stroke-linecap="round" stroke-linejoin="round" stroke-miterlimit="3.864" stroke-width=".375" clip-rule="evenodd"/><line x1="18.679" x2="23.989" y1="39.457" y2="34.194" fill="none" fill-rule="evenodd" stroke="#292929" stroke-linecap="round" stroke-linejoin="round" stroke-miterlimit="3.864" stroke-width=".375" clip-rule="evenodd"/><line x1="23.55" x2="25.348" y1="40.953" y2="39.151" fill="none" fill-rule="evenodd" stroke="#292929" stroke-linecap="round" stroke-linejoin="round" stroke-miterlimit="3.864" stroke-width=".375" clip-rule="evenodd"/><line x1="21.395" x2="25.348" y1="40.989" y2="37.051" fill="none" fill-rule="evenodd" stroke="#292929" stroke-linecap="round" stroke-linejoin="round" stroke-miterlimit="3.864" stroke-width=".375" clip-rule="evenodd"/><line x1="19.317" x2="25.362" y1="40.948" y2="34.938" fill="none" fill-rule="evenodd" stroke="#292929" stroke-linecap="round" stroke-linejoin="round" stroke-miterlimit="3.864" stroke-width=".375" clip-rule="evenodd"/><polygon fill="none" fill-rule="evenodd" stroke="#292929" stroke-linecap="round" stroke-linejoin="round" stroke-miterlimit="3.864" stroke-width=".75" points="24.969 26.995 21.589 26.995 18.548 34.139 18.548 40.996 25.405 40.996 25.405 34.139 22.506 34.139" clip-rule="evenodd"/></g><g><line x1="44.942" x2="42.947" y1="40.016" y2="42.015" fill="none" fill-rule="evenodd" stroke="#292929" stroke-linecap="round" stroke-linejoin="round" stroke-miterlimit="3.864" stroke-width=".375" clip-rule="evenodd"/><line x1="46.509" x2="40.826" y1="36.372" y2="42.025" fill="none" fill-rule="evenodd" stroke="#292929" stroke-linecap="round" stroke-linejoin="round" stroke-miterlimit="3.864" stroke-width=".375" clip-rule="evenodd"/><line x1="47.036" x2="41.939" y1="33.772" y2="38.827" fill="none" fill-rule="evenodd" stroke="#292929" stroke-linecap="round" stroke-linejoin="round" stroke-miterlimit="3.864" stroke-width=".375" clip-rule="evenodd"/><line x1="47.036" x2="42.934" y1="31.673" y2="35.744" fill="none" fill-rule="evenodd" stroke="#292929" stroke-linecap="round" stroke-linejoin="round" stroke-miterlimit="3.864" stroke-width=".375" clip-rule="evenodd"/><line x1="47.036" x2="41.728" y1="29.574" y2="34.837" fill="none" fill-rule="evenodd" stroke="#292929" stroke-linecap="round" stroke-linejoin="round" stroke-miterlimit="3.864" stroke-width=".375" clip-rule="evenodd"/><line x1="42.165" x2="40.369" y1="28.078" y2="29.88" fill="none" fill-rule="evenodd" stroke="#292929" stroke-linecap="round" stroke-linejoin="round" stroke-miterlimit="3.864" stroke-width=".375" clip-rule="evenodd"/><line x1="44.32" x2="40.369" y1="28.042" y2="31.98" fill="none" fill-rule="evenodd" stroke="#292929" stroke-linecap="round" stroke-linejoin="round" stroke-miterlimit="3.864" stroke-width=".375" clip-rule="evenodd"/><line x1="46.4" x2="40.353" y1="28.082" y2="34.094" fill="none" fill-rule="evenodd" stroke="#292929" stroke-linecap="round" stroke-linejoin="round" stroke-miterlimit="3.864" stroke-width=".375" clip-rule="evenodd"/><polygon fill="none" fill-rule="evenodd" stroke="#292929" stroke-linecap="round" stroke-linejoin="round" stroke-miterlimit="3.864" stroke-width=".75" points="40.747 42.037 44.126 42.037 47.169 34.891 47.169 28.035 40.312 28.035 40.312 34.891 43.21 34.891" clip-rule="evenodd"/></g><g><line x1="54.721" x2="52.726" y1="40.016" y2="42.015" fill="none" fill-rule="evenodd" stroke="#292929" stroke-linecap="round" stroke-linejoin="round" stroke-miterlimit="3.864" stroke-width=".375" clip-rule="evenodd"/><line x1="56.287" x2="50.604" y1="36.372" y2="42.025" fill="none" fill-rule="evenodd" stroke="#292929" stroke-linecap="round" stroke-linejoin="round" stroke-miterlimit="3.864" stroke-width=".375" clip-rule="evenodd"/><line x1="56.815" x2="51.716" y1="33.772" y2="38.827" fill="none" fill-rule="evenodd" stroke="#292929" stroke-linecap="round" stroke-linejoin="round" stroke-miterlimit="3.864" stroke-width=".375" clip-rule="evenodd"/><line x1="56.815" x2="52.713" y1="31.673" y2="35.744" fill="none" fill-rule="evenodd" stroke="#292929" stroke-linecap="round" stroke-linejoin="round" stroke-miterlimit="3.864" stroke-width=".375" clip-rule="evenodd"/><line x1="56.815" x2="51.506" y1="29.574" y2="34.837" fill="none" fill-rule="evenodd" stroke="#292929" stroke-linecap="round" stroke-linejoin="round" stroke-miterlimit="3.864" stroke-width=".375" clip-rule="evenodd"/><line x1="51.944" x2="50.148" y1="28.078" y2="29.88" fill="none" fill-rule="evenodd" stroke="#292929" stroke-linecap="round" stroke-linejoin="round" stroke-miterlimit="3.864" stroke-width=".375" clip-rule="evenodd"/><line x1="54.099" x2="50.148" y1="28.042" y2="31.98" fill="none" fill-rule="evenodd" stroke="#292929" stroke-linecap="round" stroke-linejoin="round" stroke-miterlimit="3.864" stroke-width=".375" clip-rule="evenodd"/><line x1="56.179" x2="50.132" y1="28.082" y2="34.094" fill="none" fill-rule="evenodd" stroke="#292929" stroke-linecap="round" stroke-linejoin="round" stroke-miterlimit="3.864" stroke-width=".375" clip-rule="evenodd"/><polygon fill="none" fill-rule="evenodd" stroke="#292929" stroke-linecap="round" stroke-linejoin="round" stroke-miterlimit="3.864" stroke-width=".75" points="50.526 42.037 53.905 42.037 56.947 34.891 56.947 28.035 50.091 28.035 50.091 34.891 52.988 34.891" clip-rule="evenodd"/></g></svg>