<svg xmlns="http://www.w3.org/2000/svg" xmlns:xlink="http://www.w3.org/1999/xlink" id="Layer_1" width="71.333" height="71.333" x="0" y="0" enable-background="new 0 0 71.333 71.333" version="1.1" viewBox="0 0 71.333 71.333" xml:space="preserve"><rect width="70.333" height="70.333" x=".5" y=".5" fill="none" fill-rule="evenodd" clip-rule="evenodd"/><g><path fill="none" fill-rule="evenodd" stroke="#292929" stroke-linecap="round" stroke-linejoin="round" stroke-miterlimit="3.864" d="M32.843,58.612l30.355-7.027c0,0,0.312-15.4,0.312-19.568c0-4.168-3.728-8.277-8.642-8.102l-28.392,3.267" clip-rule="evenodd"/><polyline fill="none" fill-rule="evenodd" stroke="#292929" stroke-linecap="round" stroke-linejoin="round" stroke-miterlimit="3.864" points="32.631 35.848 14.681 38.569 14.842 58.466 32.248 54.447" clip-rule="evenodd"/><polyline fill="none" fill-rule="evenodd" stroke="#292929" stroke-linecap="round" stroke-linejoin="round" stroke-miterlimit="3.864" points="32.052 32.841 11.185 36.03 11.293 56.223 14.741 55.415" clip-rule="evenodd"/><polyline fill="none" fill-rule="evenodd" stroke="#292929" stroke-linecap="round" stroke-linejoin="round" stroke-miterlimit="3.864" points="29.767 26.628 29.469 14.459 39.54 13.565 39.72 21.065 30.144 22.256" clip-rule="evenodd"/><path fill="none" fill-rule="evenodd" stroke="#292929" stroke-linecap="round" stroke-linejoin="round" stroke-miterlimit="3.864" d="M28.401,55.839l4.441,2.773c0,0,0-16.868,0-22.077c0-4.815-3.322-9.178-6.002-9.377c-2.68-0.198-6.055,0.993-6.352,5.805 c-0.013,0.211-0.025,1.253-0.038,1.479" clip-rule="evenodd"/><line x1="20.633" x2="23.679" y1="31.69" y2="34.081" fill="none" fill-rule="evenodd" stroke="#292929" stroke-linecap="round" stroke-linejoin="round" stroke-miterlimit="3.864" stroke-width=".5" clip-rule="evenodd"/><line x1="21.091" x2="25.747" y1="30.111" y2="33.71" fill="none" fill-rule="evenodd" stroke="#292929" stroke-linecap="round" stroke-linejoin="round" stroke-miterlimit="3.864" stroke-width=".5" clip-rule="evenodd"/><line x1="22.249" x2="27.8" y1="28.796" y2="33.396" fill="none" fill-rule="evenodd" stroke="#292929" stroke-linecap="round" stroke-linejoin="round" stroke-miterlimit="3.864" stroke-width=".5" clip-rule="evenodd"/><line x1="23.602" x2="29.942" y1="27.883" y2="33.126" fill="none" fill-rule="evenodd" stroke="#292929" stroke-linecap="round" stroke-linejoin="round" stroke-miterlimit="3.864" stroke-width=".5" clip-rule="evenodd"/><polyline fill="none" fill-rule="evenodd" stroke="#292929" stroke-linecap="round" stroke-linejoin="round" stroke-miterlimit="3.864" points="14.995 38.768 29.647 46.253 32.665 42.462" clip-rule="evenodd"/><line x1="25.534" x2="31.64" y1="27.336" y2="32.31" fill="none" fill-rule="evenodd" stroke="#292929" stroke-linecap="round" stroke-linejoin="round" stroke-miterlimit="3.864" stroke-width=".5" clip-rule="evenodd"/><line x1="29.784" x2="37.362" y1="14.886" y2="21.414" fill="none" fill-rule="evenodd" stroke="#292929" stroke-linecap="round" stroke-linejoin="round" stroke-miterlimit="3.864" stroke-width=".5" clip-rule="evenodd"/><line x1="29.435" x2="34.742" y1="16.895" y2="21.589" fill="none" fill-rule="evenodd" stroke="#292929" stroke-linecap="round" stroke-linejoin="round" stroke-miterlimit="3.864" stroke-width=".5" clip-rule="evenodd"/><line x1="29.609" x2="32.709" y1="19.34" y2="21.938" fill="none" fill-rule="evenodd" stroke="#292929" stroke-linecap="round" stroke-linejoin="round" stroke-miterlimit="3.864" stroke-width=".5" clip-rule="evenodd"/><line x1="31.705" x2="39.283" y1="14.361" y2="20.89" fill="none" fill-rule="evenodd" stroke="#292929" stroke-linecap="round" stroke-linejoin="round" stroke-miterlimit="3.864" stroke-width=".5" clip-rule="evenodd"/><line x1="34.524" x2="39.831" y1="14.274" y2="18.969" fill="none" fill-rule="evenodd" stroke="#292929" stroke-linecap="round" stroke-linejoin="round" stroke-miterlimit="3.864" stroke-width=".5" clip-rule="evenodd"/><line x1="36.708" x2="39.808" y1="14.013" y2="16.61" fill="none" fill-rule="evenodd" stroke="#292929" stroke-linecap="round" stroke-linejoin="round" stroke-miterlimit="3.864" stroke-width=".5" clip-rule="evenodd"/><g><path fill="none" fill-rule="evenodd" stroke="#292929" stroke-linecap="round" stroke-linejoin="round" stroke-miterlimit="3.864" stroke-width=".5" d="M36.229,45.513c0.01-3.896,2.639-7.678,5.871-8.444c3.232-0.768,5.845,1.771,5.835,5.667c-0.01,3.897-2.639,7.679-5.871,8.445 C38.832,51.948,36.22,49.41,36.229,45.513z" clip-rule="evenodd"/><path fill="none" fill-rule="evenodd" stroke="#292929" stroke-linecap="round" stroke-linejoin="round" stroke-miterlimit="3.864" stroke-width=".5" d="M38.056,45.08c0.007-2.682,1.815-5.283,4.039-5.811c2.225-0.528,4.021,1.218,4.015,3.899c-0.007,2.682-1.815,5.283-4.039,5.811 C39.846,49.507,38.049,47.761,38.056,45.08z" clip-rule="evenodd"/><path fill="none" fill-rule="evenodd" stroke="#292929" stroke-linecap="round" stroke-linejoin="round" stroke-miterlimit="3.864" stroke-width=".5" d="M42.896,38.715c1.394-1.193,2.428-1.702,4.225-2.078c1.611-0.338,2.609,0.412,4.221,0.074c1.797-0.376,2.428-1.701,4.226-2.078 c1.61-0.337,2.621-0.319,4.22,0.075" clip-rule="evenodd"/><path fill="none" fill-rule="evenodd" stroke="#292929" stroke-linecap="round" stroke-linejoin="round" stroke-miterlimit="3.864" stroke-width=".5" d="M42.891,40.886c1.541-1.187,2.542-1.679,4.226-2.078c1.683-0.399,2.536,0.474,4.22,0.074c1.684-0.399,2.542-1.679,4.226-2.078 c1.684-0.399,2.683-0.382,4.22,0.075" clip-rule="evenodd"/><path fill="none" fill-rule="evenodd" stroke="#292929" stroke-linecap="round" stroke-linejoin="round" stroke-miterlimit="3.864" stroke-width=".5" d="M42.885,43.057c1.542-1.187,2.542-1.679,4.226-2.078c1.684-0.399,2.537,0.474,4.22,0.074c1.684-0.398,2.543-1.679,4.226-2.078 c1.684-0.399,2.684-0.381,4.221,0.075" clip-rule="evenodd"/><path fill="none" fill-rule="evenodd" stroke="#292929" stroke-linecap="round" stroke-linejoin="round" stroke-miterlimit="3.864" stroke-width=".5" d="M42.88,45.228c1.541-1.187,2.542-1.679,4.225-2.078c1.684-0.399,2.537,0.474,4.221,0.074c1.683-0.398,2.542-1.679,4.226-2.078 c1.683-0.399,2.683-0.382,4.22,0.075" clip-rule="evenodd"/><path fill="none" fill-rule="evenodd" stroke="#292929" stroke-linecap="round" stroke-linejoin="round" stroke-miterlimit="3.864" stroke-width=".5" d="M42.874,47.398c1.541-1.187,2.542-1.679,4.226-2.078c1.684-0.399,2.536,0.474,4.22,0.074c1.684-0.399,2.542-1.679,4.226-2.078 c1.684-0.399,2.683-0.382,4.22,0.075" clip-rule="evenodd"/><path fill="none" fill-rule="evenodd" stroke="#292929" stroke-linecap="round" stroke-linejoin="round" stroke-miterlimit="3.864" stroke-width=".5" d="M42.868,49.569c1.396-1.193,2.429-1.701,4.226-2.078c1.611-0.338,2.609,0.412,4.22,0.074c1.798-0.376,2.429-1.701,4.226-2.078 c1.611-0.337,2.622-0.319,4.221,0.075" clip-rule="evenodd"/></g><line x1="30.095" x2="32.616" y1="54.995" y2="56.811" fill="none" fill-rule="evenodd" stroke="#292929" stroke-linecap="round" stroke-linejoin="round" stroke-miterlimit="3.864" stroke-width=".286" clip-rule="evenodd"/></g></svg>